<svg xmlns="http://www.w3.org/2000/svg" viewBox="0 0 400 200" fill="none">
  <!-- Transparent background -->
  <rect width="100%" height="100%" fill="none" />
  
  <!-- Heart rate graph -->
  <path d="M 50 100 
           C 80 70 100 130 130 100 
           C 150 70 180 130 200 100 
           C 220 70 250 130 270 100 
           C 290 70 310 130 330 100 
           C 350 70 370 130 390 100" 
        fill="none" stroke="white" stroke-width="2" />
  <path d="M 50 100 
           C 80 120 100 80 130 100 
           C 150 120 170 80 180 100 
           C 200 120 220 80 230 100 
           C 250 120 270 80 280 100 
           C 300 120 320 80 330 100 
           C 350 120 370 80 390 100" 
        fill="none" stroke="rgb(93, 93, 255)" stroke-width="2" />
</svg>